<?xml version="1.0" encoding="UTF-8" standalone="no"?>
<!-- Created with Inkscape (http://www.inkscape.org/) -->
<svg xmlns="http://www.w3.org/2000/svg" width="600" height="600">
  <defs>
  </defs>
  <path
     style="fill:#FCA100"
     d="M 587.98795,587.98839 L 11.994311,587.98839 L 11.994311,11.994748 L 587.98795,11.994748 L 587.98795,587.98839 z" />
  <path
     d="M 237.77222,325.2834 C 242.12899,331.05127 240.77081,333.2914 236.36112,336.62512 L 226.90675,324.06633 C 232.05726,320.20344 234.08572,320.34455 237.77222,325.2834 M 471.99729,477.80574 C 476.38934,483.57361 474.97824,485.84901 470.62146,489.14746 L 461.14945,476.6063 C 466.31761,472.74342 468.34606,472.9198 471.99729,477.80574 M 261.14357,197.96684 C 265.51799,203.73472 264.14216,206.01012 259.75011,209.30857 L 250.31338,196.78505 C 255.42862,192.90452 257.45707,193.08091 261.14357,197.96684 M 155.71672,58.038578 C 160.05585,63.806451 158.71531,66.064212 154.34089,69.36266 L 144.88652,56.839142 C 149.98412,52.958615 152.03022,53.135003 155.71672,58.038578 M 85.567377,439.9706 C 89.906512,445.75612 88.565966,447.99624 84.173915,451.32996 L 74.701902,438.77117 C 79.834781,434.90828 81.863238,435.04939 85.567377,439.9706 M 284.53257,70.632651 C 288.8717,76.400525 287.53116,78.693563 283.12147,81.992011 L 273.70237,69.433215 C 278.81761,65.587966 280.84607,65.746715 284.53257,70.632651 M 343.21672,465.19403 C 347.55585,470.9619 346.16239,473.2373 341.78798,476.55339 L 332.3336,463.99459 C 337.44884,460.14934 339.49494,460.29045 343.21672,465.19403 M 366.60571,337.89511 C 370.9272,343.64535 369.6043,345.92075 365.17697,349.21919 L 355.74023,336.67804 C 360.89075,332.81515 362.88393,332.9739 366.60571,337.89511 M 518.81055,223.19027 C 523.14969,228.95814 521.7915,231.23354 517.39945,234.53199 L 507.96272,221.97319 C 513.09559,218.12795 515.10641,218.28669 518.81055,223.19027 M 413.36606,83.262001 C 417.70519,89.029875 416.36464,91.287636 411.97259,94.586084 L 402.53586,82.044927 C 407.6511,78.199678 409.67956,78.358427 413.36606,83.262001 M 389.97706,210.57856 C 394.3162,216.34643 392.97565,218.60419 388.5836,221.92028 L 379.14687,209.37912 C 384.22683,205.51623 386.29056,205.67498 389.97706,210.57856 M 542.19954,95.873713 C 546.53868,101.62395 545.19813,103.89935 540.82372,107.1978 L 531.31643,94.656639 C 536.48459,90.793751 538.51304,90.970139 542.19954,95.873713 M 108.95637,312.65405 C 113.2955,318.42192 111.95496,320.67968 107.58055,324.01341 L 98.126173,311.43697 C 103.24141,307.59173 105.26987,307.76811 108.95637,312.65405 M 214.38323,452.59996 C 218.72236,458.35019 217.38182,460.59031 212.98977,463.92404 L 203.55303,451.36524 C 208.66827,447.51999 210.69673,447.67874 214.38323,452.59996 M 495.38628,350.48919 C 499.77833,356.25706 498.40251,358.53246 494.01046,361.84855 L 484.57372,349.28975 C 489.67132,345.42686 491.69978,345.60325 495.38628,350.48919 M 16.053032,44.22743 L 25.507406,56.768587 C 29.899457,53.4525 31.240003,51.194739 26.900868,45.444504 C 23.196729,40.523291 21.185911,40.364542 16.053032,44.22743 M 132.32772,185.35513 C 136.70214,191.12301 135.32631,193.39841 130.93426,196.71449 L 121.47989,184.1557 C 126.59513,180.31045 128.62359,180.43392 132.32772,185.35513 M 583.66826,12.001419 L 567.72283,12.001419 L 573.50834,19.674279 L 583.66826,12.001419 z M 290.75905,13.359604 L 289.736,12.001419 L 268.34019,12.001419 L 277.07137,23.660638 L 290.75905,13.359604 z M 343.34019,42.833968 C 358.73882,63.242011 366.11182,67.616423 379.67603,57.385943 C 383.73294,54.334438 385.93779,50.859603 386.97847,46.238248 L 390.96483,47.525878 L 397.96742,42.269528 L 376.28939,13.483075 L 359.19743,26.341729 L 366.48224,36.025408 L 369.90416,33.43251 L 373.74941,38.565389 C 376.09536,41.66981 375.5662,43.998126 373.44955,45.585614 C 371.3329,47.155464 368.95166,47.049631 366.60571,43.962849 L 348.82584,20.309274 C 346.47989,17.222492 347.00905,14.876537 349.09042,13.289048 C 351.20707,11.70156 353.62358,11.789754 355.96954,14.911814 L 358.24494,17.945681 L 366.11182,12.001419 L 333.14498,12.001419 C 329.72307,19.815389 333.02151,29.163931 343.34019,42.833968 M 419.59254,25.971315 L 409.04456,12.001419 L 387.63111,12.001419 L 405.90486,36.27235 L 419.59254,25.971315 z M 472.19131,55.463319 C 487.53703,75.836084 494.92767,80.245774 508.49188,69.997655 C 512.56643,66.928512 514.80655,63.453676 515.81196,58.867599 L 519.79832,60.13759 L 526.80091,54.863601 L 505.12288,26.112426 L 488.0662,38.953441 L 495.31573,48.63712 L 498.72001,46.044222 L 502.56526,51.159462 C 504.92885,54.281522 504.39969,56.592199 502.2654,58.197326 C 500.14875,59.784815 497.76751,59.661343 495.4392,56.556922 L 477.60641,32.920986 C 475.2781,29.816565 475.8249,27.488249 477.95919,25.90076 C 480.07584,24.295633 482.45707,24.419105 484.78539,27.505887 L 487.04315,30.539754 L 500.73082,20.256358 C 497.55585,16.093611 495.38628,13.659462 493.0756,12.213084 C 492.93449,12.107252 492.77574,12.107252 492.63463,12.001419 L 475.17226,12.001419 C 473.39075,12.900996 471.57396,13.959321 469.89828,15.246951 C 456.73976,25.142294 457.42767,35.919575 472.19131,55.463319 M 548.39075,38.583027 L 528.37076,12.001419 L 506.97494,12.001419 L 534.73835,48.884062 L 548.39075,38.583027 z M 71.068318,69.22155 L 101.4599,46.291165 L 93.134404,35.231663 L 76.359946,47.843375 L 68.757641,37.736367 L 81.933793,27.805746 L 73.555383,16.693329 L 60.39687,26.641588 L 53.764697,17.857487 L 61.508111,12.001419 L 39.300915,12.001419 L 32.069024,17.469434 L 71.068318,69.22155 z M 199.90181,81.833262 L 230.29339,58.920515 L 221.91498,47.825737 L 205.1758,60.437449 L 197.55585,50.348079 L 210.732,40.417458 L 202.35359,29.32268 L 189.21272,39.235662 L 182.58055,30.45156 L 198.50834,18.439566 L 193.69296,12.001419 L 184.83831,12.001419 L 160.86724,30.063507 L 199.90181,81.833262 z M 250.84254,44.809509 C 254.91709,41.722726 257.15722,38.26553 258.14499,33.644175 L 262.14898,34.914166 L 269.13393,29.640177 L 255.86959,12.001419 L 232.7099,12.001419 L 230.41686,13.765295 L 237.66639,23.396057 L 241.08831,20.838437 L 244.96883,25.971315 C 247.27951,29.040459 246.73271,31.386414 244.61606,32.991541 C 242.49941,34.579029 240.11817,34.455558 237.77222,31.333498 L 223.23788,12.001419 L 204.04691,12.001419 C 205.70496,17.169575 209.16215,23.113837 214.5067,30.239895 C 229.90533,50.61266 237.27833,55.02235 250.84254,44.809509 M 122.02669,32.180158 C 126.10124,29.111014 128.32373,25.61854 129.32914,21.050102 L 133.3155,22.284815 L 140.30044,17.028465 L 136.54339,12.001419 L 115.14757,12.001419 L 116.13534,13.324326 C 118.44602,16.446386 117.91686,18.774702 115.80021,20.36219 C 113.68356,21.949679 111.30233,21.843846 108.95637,18.739425 L 103.89405,12.001419 L 81.775044,12.001419 C 82.97448,13.818211 84.226832,15.635003 85.708487,17.628183 C 101.08948,38.018587 108.46249,42.410638 122.02669,32.180158 M 539.80067,512.34243 L 578.85288,564.11218 L 587.98976,557.16251 L 587.98976,547.84925 L 553.48835,502.04139 L 539.80067,512.34243 z M 504.11747,569.75659 L 490.94131,579.68721 L 484.32678,570.86783 L 500.23694,558.89111 L 492.2113,548.21966 L 462.61347,570.51505 L 475.80726,588.0127 L 502.98859,588.0127 L 512.49588,580.85136 L 504.11747,569.75659 z M 559.87358,574.07808 L 563.89522,575.33043 L 570.88016,570.09172 L 549.23741,541.32291 L 532.14545,554.1992 L 539.37734,563.8476 L 542.8169,561.2547 L 546.69743,566.38758 C 549.04338,569.47437 548.4613,571.80268 546.34465,573.40781 C 544.24564,574.9953 541.84677,574.87183 539.55373,571.78504 L 521.72095,548.13147 C 519.37499,545.02705 519.90415,542.69873 522.02081,541.11124 C 524.11982,539.52375 526.51869,539.64723 528.86464,542.75165 L 531.14004,545.78551 L 544.79244,535.48448 C 541.65274,531.30409 539.48318,528.86994 537.20778,527.42357 C 529.94061,522.71402 521.29762,524.9365 513.99517,530.45743 C 500.80138,540.37042 501.50693,551.11242 516.25293,570.65616 C 522.83219,579.38735 527.94743,585.03175 532.70989,588.0127 L 548.28492,588.0127 C 549.69602,587.2366 551.10712,586.35466 552.60641,585.20814 C 556.62805,582.17427 558.86817,578.6818 559.87358,574.07808 M 441.72918,586.21355 L 439.33031,588.0127 L 469.3162,588.0127 C 460.65557,577.5 452.31243,578.25847 441.72918,586.21355 M 304.09395,580.28692 L 293.79292,588.0127 L 335.54386,588.0127 C 334.67956,586.47813 334.09748,585.08467 332.82749,583.39135 C 323.74353,571.34407 315.15345,571.92615 304.09395,580.28692 M 361.66686,584.82009 L 374.82537,574.87183 L 366.48224,563.77705 L 353.32372,573.70767 L 346.65627,564.92357 L 362.61935,552.91157 L 354.57608,542.22248 L 324.9606,564.55315 L 342.63464,588.0127 L 364.06573,588.0127 L 361.66686,584.82009 z M 204.01164,570.77963 C 194.94532,558.73236 186.3376,559.33208 175.2781,567.65757 L 159.91474,579.24624 L 166.494,588.0127 L 187.14898,588.0127 L 180.1464,578.69944 C 185.26164,574.81891 187.30773,574.9953 190.99423,579.89887 C 193.86935,583.70884 194.06338,585.94897 192.74047,588.0127 L 208.66827,588.0127 C 210.53798,582.98565 209.23271,577.7293 204.01164,570.77963 M 257.17485,569.66839 L 240.43567,582.2801 L 232.86865,572.20837 L 245.99188,562.27775 L 237.66639,551.20061 L 224.49024,561.11359 L 217.85806,552.31185 L 233.78586,540.28222 L 225.74259,529.62841 L 196.12711,551.94144 L 223.32608,588.0127 L 255.97542,588.0127 L 265.5709,580.78081 L 257.17485,569.66839 z M 378.44132,588.0127 L 390.34748,588.0127 L 386.00834,582.2801 L 378.44132,588.0127 z M 578.57066,483.13265 L 587.98976,495.62089 L 587.98976,476.02423 L 578.57066,483.13265 z M 554.37029,391.65805 L 587.98976,436.26647 L 587.98976,407.85043 L 568.05796,381.35701 L 554.37029,391.65805 z M 570.08642,306.23354 L 577.35359,315.88194 L 580.77551,313.28904 L 584.6384,318.42192 C 586.98435,321.52634 586.41991,323.85466 584.28562,325.44215 C 582.18661,327.02964 579.82302,326.90617 577.47706,323.80174 L 559.67955,300.16581 C 557.3336,297.06139 557.8804,294.75071 559.97941,293.14558 C 562.09606,291.55809 564.49493,291.66393 566.82325,294.75071 L 569.08101,297.81985 L 582.76869,287.50118 C 579.62899,283.33843 577.42414,280.92192 575.14874,279.45791 C 567.91685,274.74836 559.25622,276.9532 551.95378,282.49177 C 538.77763,292.40476 539.50081,303.1644 554.22918,322.6905 C 568.56949,341.74036 576.04832,346.66157 587.98976,338.90052 L 587.98976,294.46849 L 587.1431,293.35725 L 570.08642,306.23354 z M 575.32513,155.13994 C 562.16662,165.0882 562.87217,175.84784 577.61817,195.37395 C 581.4987,200.57738 584.88534,204.68721 587.98976,207.84455 L 587.98976,179.41087 L 583.06855,172.86689 C 580.72259,169.76247 581.26939,167.43415 583.38604,165.84667 C 584.83242,164.75306 586.41991,164.5414 587.98976,165.47625 L 587.98976,149.81304 C 583.6859,150.28928 579.32913,152.14135 575.32513,155.13994 M 569.06337,68.286696 L 584.99117,56.274702 L 576.93026,45.585614 L 547.38534,67.898643 L 586.38463,119.65076 L 587.98976,118.43368 L 587.98976,93.421926 L 584.03868,88.183215 L 587.98976,85.202265 L 587.98976,67.792811 L 575.66027,77.070797 L 569.06337,68.286696 z M 587.98976,277.92333 L 587.98976,256.63335 L 577.77692,264.34149 L 587.98976,277.92333 z M 568.28727,225.58914 L 560.66732,215.49977 L 573.8082,205.56915 L 565.46507,194.47437 L 552.30655,204.38735 L 545.69202,195.60325 L 561.60218,183.6089 L 553.5589,172.93745 L 523.99635,195.23284 L 562.99564,246.98495 L 587.98976,228.12912 L 587.98976,216.94615 L 584.99117,212.95979 L 568.28727,225.58914 z M 51.312909,566.07009 L 60.767283,578.62888 C 65.159334,575.29516 66.535157,573.05503 62.178384,567.3048 C 58.491884,562.38359 56.445788,562.22484 51.312909,566.07009 M 11.996118,197.20838 L 11.996118,223.45485 L 24.60783,213.92992 L 11.996118,197.20838 z M 22.914509,260.46096 L 14.888874,249.78952 L 11.996118,251.95908 L 11.996118,268.66299 L 22.914509,260.46096 z M 16.529278,163.60654 C 15.012345,161.57809 13.513051,160.06115 11.996118,158.72061 L 11.996118,191.74036 C 24.219777,182.4271 25.472129,175.47743 16.529278,163.60654 M 22.949786,417.14605 L 11.996118,425.40099 L 11.996118,442.79281 L 31.328196,428.22319 L 22.949786,417.14605 z M 54.699551,300.92428 L 46.338779,289.8295 L 29.599598,302.44121 L 21.997293,292.36948 L 35.173446,282.42122 L 26.795036,271.32644 L 13.618883,281.25706 L 11.996118,279.10513 L 11.996118,307.52117 L 24.290332,323.85466 L 54.699551,300.92428 z M 51.877349,414.12982 C 55.934264,411.06068 58.139109,407.56821 59.162156,402.98213 L 63.183793,404.25212 L 70.168741,398.96049 L 48.490708,370.20932 L 31.398751,383.08561 L 38.683558,392.73401 L 42.105478,390.15875 L 45.968366,395.29163 C 48.296682,398.37841 47.74988,400.72437 45.650868,402.32949 C 43.516578,403.91698 41.135346,403.77587 38.824669,400.67145 L 20.991884,377.01788 C 18.663568,373.93109 19.192731,371.58514 21.309382,369.99765 C 23.426033,368.39252 25.807265,368.55127 28.15322,371.63806 L 30.42862,374.65428 L 44.081018,364.38853 C 40.923681,360.17286 38.736475,357.79163 36.496352,356.30998 C 29.229184,351.61807 20.586193,353.82291 13.266108,359.3262 C 12.772223,359.69662 12.454725,360.08467 11.996118,360.43744 L 11.996118,394.53316 C 13.107359,396.15593 14.200962,397.7787 15.541508,399.54257 C 30.922505,419.98589 38.295506,424.3603 51.877349,414.12982 M 78.088544,173.62536 L 69.727773,162.53058 L 52.970952,175.15993 L 45.386286,165.05292 L 58.5448,155.10466 L 50.184029,144.02752 L 37.007876,153.9405 L 30.375703,145.13876 L 46.303502,133.12677 L 38.260228,122.47296 L 11.996118,142.28129 L 11.996118,149.19568 L 47.696964,196.53811 L 78.088544,173.62536 z M 34.838309,96.526347 L 11.996118,66.222961 L 11.996118,32.674044 C 22.649927,24.895351 31.063615,24.560215 39.900633,36.289989 C 48.914038,48.266706 47.661686,55.216376 35.155807,64.653112 L 32.774575,66.434626 L 47.996823,86.613366 L 34.838309,96.526347 z M 20.692025,491.68744 C 17.552326,487.48942 15.36512,485.07291 13.089721,483.60889 C 12.736945,483.37959 12.348893,483.36195 11.996118,483.16792 L 11.996118,498.23142 L 20.692025,491.68744 z M 128.359,557.07432 L 111.6551,569.66839 L 104.0528,559.59666 L 117.22895,549.66604 L 108.85054,538.55362 L 95.674386,548.48424 L 89.024574,539.71778 L 104.97001,527.68815 L 96.944376,517.0167 L 67.34654,539.31209 L 104.01752,588.0127 L 110.42039,588.0127 L 136.73741,568.15146 L 128.359,557.07432 z M 70.415684,586.49577 L 68.440143,588.0127 L 47.203079,588.0127 L 31.098893,566.63453 L 46.462251,555.04586 C 57.521752,546.70273 66.111827,546.13829 75.178149,558.15028 C 84.226832,570.127 82.939202,577.05903 70.415684,586.49577 M 28.488356,541.42874 C 32.562909,538.3596 34.767754,534.86712 35.773163,530.28105 L 39.7948,531.55104 L 46.76211,526.27705 L 25.101715,497.52587 L 11.996118,507.38594 L 11.996118,515.65852 L 15.312204,520.03293 L 18.716484,517.47531 L 22.561734,522.59055 C 24.907688,525.67733 24.360887,528.02328 22.261875,529.61077 C 20.145224,531.19826 17.763991,531.09243 15.418037,527.98801 L 11.996118,523.45485 L 11.996118,545.89135 C 17.111357,547.67286 22.120765,546.22648 28.488356,541.42874 M 578.42955,454.71661 L 585.46742,449.42498 L 563.78938,420.65616 L 546.69743,433.51482 L 553.98223,443.21614 L 557.40415,440.6056 L 561.2494,445.72084 C 563.59536,448.86054 563.0662,451.15358 560.94954,452.74107 C 558.83289,454.32855 556.45166,454.22272 554.10571,451.1183 L 536.27292,427.46473 C 533.92697,424.37794 534.45613,422.04963 536.59042,420.4445 C 538.70707,418.87465 541.07066,418.98048 543.43426,422.06727 L 545.69202,425.11877 L 559.37969,414.8001 C 556.22236,410.63735 554.03515,408.22084 551.75975,406.73918 C 544.49258,402.02964 535.84959,404.25212 528.56478,409.77305 C 515.38863,419.72131 516.11182,430.46331 530.84018,450.0247 C 546.1859,470.39746 553.5589,474.77187 567.14075,464.55903 C 571.23294,461.48989 573.43778,458.01505 574.42556,453.41134 L 578.42955,454.71661 z M 546.57396,478.68768 L 538.23082,467.5929 L 521.474,480.20461 L 513.88934,470.11524 L 527.06549,460.18462 L 518.68708,449.10748 L 505.49329,459.00282 L 498.84348,450.23636 L 514.80655,438.22437 L 506.78092,427.53528 L 477.18308,449.84831 L 516.18238,501.61806 L 546.57396,478.68768 z M 493.0756,518.9746 L 477.90627,498.8135 L 480.25223,497.03199 C 492.77574,487.61289 494.06337,480.66322 485.01469,468.70414 C 475.96601,456.65687 467.34066,457.25659 456.28115,465.58208 L 440.95307,477.13547 L 479.95237,528.92286 L 493.0756,518.9746 z M 454.81714,547.83161 L 415.81784,496.06185 L 402.18308,506.36289 L 441.18238,558.13264 L 454.81714,547.83161 z M 433.20966,564.12982 L 411.5669,535.34337 L 394.47495,548.21966 L 401.75975,557.86806 L 405.18167,555.31044 L 409.02692,560.42568 C 411.37288,563.49483 410.82607,565.85842 408.72706,567.44591 C 406.61041,569.05104 404.22918,568.90993 401.88322,565.82314 L 384.05044,542.16957 C 381.73976,539.06515 382.28656,536.75447 384.40322,535.14934 C 386.48459,533.57949 388.9011,533.68533 391.24705,536.77211 L 393.50481,539.80597 L 407.12194,529.50494 C 403.98224,525.32455 401.81267,522.92568 399.53727,521.44403 C 392.32302,516.73448 383.66239,518.95696 376.32466,524.47789 C 363.16615,534.40851 363.88934,545.16816 378.58243,564.7119 C 393.9987,585.10231 401.38934,589.47672 414.93591,579.26388 C 419.01046,576.19473 421.19766,572.68462 422.23835,568.09854 L 426.22471,569.36853 L 433.20966,564.12982 z M 387.34889,488.98871 L 417.79338,466.09361 L 409.39734,454.98119 L 392.67579,467.61054 L 385.05585,457.50353 L 398.21436,447.57291 L 389.85359,436.51341 L 376.67744,446.40875 L 370.08054,437.60701 L 386.00834,425.57738 L 377.94743,414.92357 L 348.34959,437.2366 L 387.34889,488.98871 z M 364.31267,506.38053 L 349.05514,486.18415 L 351.43638,484.42027 C 363.95989,474.98354 365.22989,468.03387 356.19884,456.09243 C 347.13252,444.04516 338.52481,444.62724 327.4653,452.95273 L 312.08431,464.54139 L 351.13652,516.31115 L 364.31267,506.38053 z M 326.03657,535.23754 L 287.00199,483.46778 L 273.34959,493.73354 L 312.34889,545.52093 L 326.03657,535.23754 z M 304.41145,551.51811 L 282.71578,522.73166 L 265.67674,535.59031 L 272.92626,545.25635 L 276.34818,542.69873 L 280.19343,547.81397 C 282.53939,550.90075 281.99259,553.26435 279.89357,554.8342 C 277.77692,556.43932 275.39569,556.28057 273.04974,553.19379 L 255.23459,529.55786 C 252.90627,526.45343 253.45308,524.14276 255.55209,522.55527 C 257.68638,520.95014 260.06761,521.07361 262.39593,524.17804 L 264.67133,527.17662 L 278.359,516.91087 C 275.16639,512.73048 272.97918,510.31397 270.73906,508.83232 C 263.48953,504.14041 254.8289,506.36289 247.49118,511.84854 C 234.36794,521.81444 235.05585,532.55645 249.76658,552.10019 C 265.12993,572.47295 272.55585,576.88264 286.10242,566.6698 C 290.19461,563.58302 292.38181,560.09055 293.36959,555.52211 L 297.40886,556.75682 L 304.41145,551.51811 z M 258.56832,476.377 L 288.9599,453.44662 L 280.59912,442.36948 L 263.8423,454.98119 L 256.25764,444.90946 L 269.39851,434.9612 L 261.07302,423.84878 L 247.89687,433.7794 L 241.24706,425.01294 L 257.17485,412.9833 L 249.11394,402.32949 L 219.53374,424.62489 L 258.56832,476.377 z M 235.47918,493.76882 L 220.25693,473.59008 L 222.60289,471.80856 C 235.12641,462.37183 236.3964,455.42216 227.41827,443.46308 C 218.29903,431.43345 209.74423,432.01552 198.68473,440.34102 L 183.30374,451.94732 L 222.30303,503.71708 L 235.47918,493.76882 z M 197.22072,522.60819 L 158.22142,470.83843 L 144.53375,481.13947 L 183.53304,532.90922 L 197.22072,522.60819 z M 175.61324,538.88876 L 153.91756,510.13758 L 136.84325,522.99624 L 144.11042,532.627 L 147.53233,530.06938 L 151.41286,535.20226 C 153.72354,538.28904 153.17674,540.635 151.07772,542.22248 C 148.96107,543.80997 146.57984,543.6865 144.23389,540.58208 L 126.43638,516.94614 C 124.10806,513.84172 124.63723,511.53105 126.75388,509.92592 C 128.85289,508.33843 131.23412,508.44426 133.58008,511.54868 L 135.85548,514.58255 L 149.52551,504.28152 C 146.38581,500.10113 144.19861,497.70226 141.92321,496.2206 C 134.65604,491.51106 126.03069,493.73354 118.67533,499.25447 C 105.55209,509.18509 106.27528,519.94473 120.986,539.47084 C 136.34936,559.87888 143.72236,564.27093 157.28657,554.04045 C 161.36112,550.95367 163.5836,547.49647 164.58901,542.89276 L 168.57537,544.14511 L 175.61324,538.88876 z M 129.75247,463.78293 L 160.12641,440.85254 L 151.76564,429.7754 L 135.00882,442.36948 L 127.40651,432.28011 L 140.58266,422.34949 L 132.20425,411.25471 L 119.06338,421.18533 L 112.41357,412.38359 L 128.359,400.38923 L 120.33337,389.71778 L 90.717895,411.99553 L 129.75247,463.78293 z M 106.66333,481.1571 L 91.441084,460.996 L 93.787038,459.19685 C 106.31056,449.74248 107.58055,442.82808 98.549503,430.85137 C 89.483181,418.82173 80.893106,419.40381 69.833605,427.74695 L 54.470247,439.31797 L 93.48718,491.08773 L 106.66333,481.1571 z M 68.404866,510.01411 L 29.387933,458.24436 L 15.717896,468.52775 L 54.717189,520.29751 L 68.404866,510.01411 z M 78.106183,392.98095 L 91.793859,382.69756 L 52.759287,330.9278 L 39.106889,341.22884 L 78.106183,392.98095 z M 75.248704,286.79563 C 79.323257,283.74412 81.54574,280.26929 82.533511,275.66557 L 86.572786,276.93556 L 93.557735,271.66158 L 71.879701,242.89276 L 54.787745,255.76905 L 62.072552,265.41746 L 65.476832,262.85984 L 69.357359,267.97508 C 71.685675,271.0795 71.138873,273.39017 69.039861,274.97766 C 66.92321,276.56515 64.541978,276.45932 62.196023,273.3549 L 44.398516,249.70132 C 42.052561,246.5969 42.581724,244.28622 44.698375,242.6811 C 46.797387,241.09361 49.196258,241.19944 51.524574,244.33914 L 53.817613,247.35537 L 67.470012,237.05433 C 64.330313,232.89159 62.107829,230.47508 59.867707,229.01106 C 52.635816,224.30151 43.957547,226.50636 36.637463,232.02729 C 23.496588,241.94027 24.202138,252.71755 38.912862,272.24365 C 54.293859,292.6517 61.66686,297.04375 75.248704,286.79563 M 62.513521,213.91228 L 101.51281,265.68204 L 115.14757,255.39864 L 76.14828,203.61125 L 62.513521,213.91228 z M 98.672974,159.47907 C 102.69461,156.42757 104.93473,152.9351 105.9225,148.34902 L 109.96178,149.60137 L 116.94673,144.34502 L 95.251055,115.55857 L 78.194376,128.4525 L 85.443906,138.08326 L 88.865825,135.52564 L 92.746352,140.65852 C 95.092307,143.7453 94.545505,146.09126 92.428854,147.67875 C 90.294564,149.26623 87.913332,149.12512 85.567377,146.03834 L 67.76987,122.38477 C 65.423916,119.29798 65.988356,116.96967 68.087368,115.38218 C 70.204019,113.77705 72.585251,113.90052 74.913567,116.98731 L 77.188967,120.03881 L 90.859005,109.73778 C 87.719306,105.53975 85.514461,103.14088 83.274339,101.67686 C 76.00717,96.949678 67.364179,99.1898 60.044094,104.71073 C 46.885581,114.62371 47.591131,125.38336 62.319494,144.9271 C 77.682852,165.3175 85.073492,169.72719 98.672974,159.47907 M 85.867236,86.578088 L 124.86653,138.36548 L 138.53657,128.06445 L 99.554912,76.277053 L 85.867236,86.578088 z M 124.63723,57.385943 L 163.63652,109.1557 L 176.81267,99.207439 L 161.59042,79.046338 L 163.93638,77.264824 C 176.4599,67.828088 177.72989,60.878418 168.75176,48.91934 C 159.63252,36.854429 151.07772,37.454147 140.00058,45.797279 L 124.63723,57.385943 z M 178.99988,156.60396 L 165.82373,166.55222 L 159.20919,157.75048 L 175.11935,145.73848 L 167.09372,135.06703 L 137.51352,157.36242 L 176.51281,209.13218 L 206.92203,186.23707 L 198.56126,175.14229 L 181.80444,187.77164 L 174.20214,177.68227 L 187.37829,167.73401 L 178.99988,156.60396 z M 191.13534,157.53881 C 206.4987,177.96449 213.88934,182.33891 227.48882,172.10843 C 231.51046,169.03928 233.73294,165.52917 234.75599,160.94309 L 238.77763,162.21308 L 245.78022,156.93909 L 224.06691,128.17028 L 206.99259,141.04657 L 214.25976,150.71261 L 217.68167,148.13735 L 221.57984,153.27023 C 223.92579,156.35701 223.32608,158.68533 221.26234,160.27282 C 219.11041,161.86031 216.72918,161.75447 214.38323,158.63241 L 196.58572,134.99648 C 194.23977,131.9097 194.78657,129.58138 196.90322,127.97625 C 199.01987,126.38876 201.4011,126.4946 203.74706,129.61666 L 206.02246,132.63289 L 219.67485,122.34949 C 216.53516,118.1691 214.34795,115.73495 212.09019,114.28858 C 204.82302,109.57903 196.16239,111.80151 188.87758,117.3048 C 175.70143,127.23543 176.42462,138.01271 191.13534,157.53881 M 214.68309,99.1898 L 253.68238,150.95955 L 267.37006,140.67616 L 228.37076,88.906404 L 214.68309,99.1898 z M 253.45308,69.980017 L 292.45237,121.74977 L 305.62852,111.81915 L 290.40627,91.640412 L 292.75223,89.858897 C 305.29339,80.4398 306.56338,73.49013 297.53233,61.531052 C 288.44837,49.48378 279.89357,50.083498 268.81643,58.408991 L 253.45308,69.980017 z M 289.68308,42.692858 L 328.7353,94.444974 L 359.10924,71.532227 L 350.73083,60.41981 L 334.02692,73.031522 L 326.38934,62.959791 L 339.56549,53.02917 L 331.18708,41.934391 L 318.04621,51.847373 L 311.3964,43.045633 L 327.34183,31.051278 L 319.3162,20.36219 L 289.68308,42.692858 z M 357.16897,101.50048 L 343.51657,111.80151 L 382.51587,163.57127 L 396.18591,153.28787 L 357.16897,101.50048 z M 382.28656,82.609367 L 421.28586,134.37912 L 434.46201,124.43086 L 419.23976,104.25212 L 421.58572,102.48825 C 434.10924,93.051512 435.4145,86.101842 426.4011,74.125125 C 417.31714,62.095492 408.72706,62.69521 397.66756,71.020703 L 382.28656,82.609367 z M 418.51657,55.286931 L 457.49823,107.05669 L 487.94272,84.143939 L 479.54668,73.031522 L 462.82513,85.660873 L 455.24047,75.589142 L 468.3637,65.640882 L 460.05585,54.546103 L 446.8797,64.441447 L 440.22988,55.674984 L 456.15768,43.645351 L 448.14969,32.991541 L 418.51657,55.286931 z M 486.0201,114.11219 L 472.33242,124.39559 L 511.38463,176.20062 L 525.01939,165.88194 L 486.0201,114.11219 z M 511.12005,95.203441 L 550.11935,146.99083 L 563.2955,137.04257 L 548.07325,116.86384 L 550.41921,115.08232 C 562.94272,105.64559 564.21271,98.695915 555.18167,86.736837 C 546.11535,74.689565 537.50763,75.289283 526.50105,83.632415 L 511.12005,95.203441 z M 503.07678,210.94897 L 487.71342,222.53763 L 526.71271,274.30739 L 539.90651,264.37677 L 524.68426,244.18039 L 527.06549,242.41651 C 539.55373,232.97978 540.82372,226.03011 531.81032,214.08867 C 522.72636,202.0414 514.13628,202.64112 503.07678,210.94897 M 503.32372,401.60631 L 516.48224,391.67569 L 501.27763,371.51458 L 503.62358,369.75071 C 516.18238,360.2787 517.45237,353.3643 508.42132,341.38759 C 499.355,329.34031 490.74729,329.94003 479.67015,338.26553 L 464.32443,349.83655 L 503.32372,401.60631 z M 464.55373,430.81609 L 478.22377,420.53269 L 439.22448,368.76294 L 425.55444,379.0287 L 464.55373,430.81609 z M 401.98906,437.39535 C 417.37005,457.80339 424.77833,462.1778 438.3249,451.96496 C 442.38181,448.89582 444.6043,445.3857 445.64498,440.81726 L 449.6137,442.05198 L 456.63393,436.83091 L 434.92062,408.04445 L 417.86394,420.90311 L 425.13111,430.56915 L 428.55303,427.99389 L 432.41591,433.12677 C 434.76187,436.19591 434.19743,438.5595 432.11606,440.12935 C 429.9994,441.73448 427.58289,441.61101 425.27222,438.50659 L 407.45707,414.85301 C 405.11112,411.76623 405.65792,409.45555 407.75693,407.85043 C 409.87358,406.26294 412.25481,406.36877 414.58313,409.47319 L 416.91145,412.48942 L 430.54621,402.20602 C 427.40651,398.02564 425.20166,395.62677 422.92626,394.14511 C 415.71201,389.43556 407.03374,391.65805 399.7313,397.16134 C 386.55514,407.1096 387.27833,417.86924 401.98906,437.39535 M 410.75552,361.67216 L 441.18238,338.77705 L 432.78633,327.68227 L 416.06479,340.27634 L 408.44484,330.20461 L 421.63863,320.27399 L 413.24258,309.17921 L 400.06643,319.0922 L 393.46954,310.29046 L 409.3797,298.2961 L 401.33642,287.62465 L 371.75623,309.93768 L 410.75552,361.67216 z M 374.52551,389.01223 L 387.70166,379.06397 L 372.49705,358.88523 L 374.82537,357.10372 C 387.34889,347.68462 388.61888,340.73495 379.58783,328.75824 C 370.52151,316.7286 361.9138,317.34596 350.8543,325.65381 L 335.52622,337.24248 L 374.52551,389.01223 z M 335.75552,418.20438 L 349.40792,407.90334 L 310.39099,356.13359 L 296.75623,366.43462 L 335.75552,418.20438 z M 273.15557,424.78363 C 288.53657,445.17404 295.92721,449.56609 309.50905,439.35325 C 313.5836,436.2841 315.82372,432.79163 316.77622,428.18791 L 320.81549,429.4579 L 327.80044,424.18392 L 306.14005,395.43274 L 289.08337,408.2914 L 296.3329,417.95743 L 299.75482,415.36454 L 303.60006,420.51505 C 305.94602,423.60184 305.39922,425.94779 303.28257,427.53528 C 301.16592,429.14041 298.80232,428.98166 296.45637,425.89488 L 278.62358,402.2413 C 276.27763,399.15452 276.85971,396.8262 278.97636,395.23871 C 281.07537,393.63359 283.47424,393.7747 285.76728,396.86148 L 288.06032,399.87771 L 301.748,389.57667 C 298.57302,385.39629 296.36817,383.01505 294.11041,381.5334 C 286.87852,376.80621 278.25317,379.0287 270.89781,384.54963 C 257.75693,394.48025 258.44484,405.23989 273.15557,424.78363 M 281.92203,349.07808 L 312.34889,326.1477 L 303.98812,315.07056 L 287.2313,327.68227 L 279.61135,317.61054 L 292.80514,307.66228 L 284.42673,296.54986 L 271.23294,306.48048 L 264.63605,297.6611 L 280.54621,285.66675 L 272.50293,275.01294 L 242.92274,297.29069 L 281.92203,349.07808 z M 245.69202,376.41816 L 258.86817,366.45226 L 243.64593,346.29116 L 245.99188,344.49201 C 258.53304,335.03763 259.80303,328.12324 250.77198,316.14652 C 241.70566,304.11689 233.13323,304.69897 222.07373,313.0421 L 206.69273,324.63077 L 245.69202,376.41816 z M 206.92203,405.6103 L 220.60971,395.30927 L 181.57514,343.53951 L 167.92274,353.82291 L 206.92203,405.6103 z M 144.35736,412.17192 C 159.75599,432.57996 167.12899,436.95438 180.6932,426.7239 C 184.75011,423.65475 186.95496,420.17992 187.99564,415.5762 L 191.982,416.84619 L 198.98459,411.5722 L 177.30656,382.82103 L 160.2146,395.69732 L 167.49941,405.32808 L 170.92133,402.77046 L 174.76658,407.8857 C 177.11253,410.99013 176.58337,413.31844 174.46672,414.90593 C 172.35007,416.49342 169.96883,416.38759 167.62288,413.28316 L 149.80773,389.64723 C 147.49706,386.54281 148.04386,384.19685 150.10759,382.60936 C 152.25952,381.02188 154.64075,381.14535 156.98671,384.23213 L 159.26211,387.28363 L 172.89687,376.9826 C 169.73953,372.78458 167.55232,370.3857 165.27692,368.90405 C 158.06267,364.21214 149.41968,366.43462 142.08196,371.95555 C 128.90581,381.86854 129.62899,392.62818 144.35736,412.17192 M 188.68356,241.60513 C 181.43403,236.89558 172.80867,239.13571 165.47095,244.639 C 152.2948,254.56962 153.03563,265.32926 167.74635,284.85537 C 183.10971,305.26341 190.51799,309.65546 204.09983,299.42498 C 208.17438,296.35584 210.34395,292.86336 211.367,288.25965 L 215.38864,289.54728 L 222.37358,284.27329 L 200.71319,255.50447 L 183.60359,268.36313 L 190.90604,278.02917 L 194.32796,275.45391 L 198.15557,280.58679 C 200.50152,283.67357 199.97236,286.01952 197.85571,287.62465 C 195.7567,289.1945 193.37547,289.07103 191.02951,285.98425 L 173.19673,262.34831 C 170.85077,259.24389 171.39757,256.89794 173.5495,255.29281 C 175.61324,253.70532 178.01211,253.84643 180.35806,256.93321 L 182.6511,259.94944 L 196.28586,249.68368 C 193.14616,245.46802 190.94132,243.08679 188.68356,241.60513 M 204.98177,216.22296 L 191.32937,226.50636 L 230.32866,278.31139 L 243.96342,268.01035 L 204.98177,216.22296 z M 245.42744,185.74319 L 230.06408,197.29657 L 269.09865,249.08397 L 282.23953,239.15334 L 267.05256,218.97461 L 269.39851,217.21073 C 281.92203,207.75636 283.19202,200.82432 274.17862,188.84761 C 265.09466,176.80034 256.50458,177.40005 245.42744,185.74319 M 359.16215,290.90546 L 372.79691,280.60443 L 333.79762,228.83467 L 320.16286,239.13571 L 359.16215,290.90546 z M 302.36535,267.90452 C 304.44673,266.31703 306.86324,266.4405 309.15627,269.54492 L 311.46695,272.57879 L 325.11935,262.27776 C 321.96201,258.07973 319.77481,255.66322 317.49941,254.23448 C 310.28515,249.5073 301.64216,251.72978 294.30444,257.25071 C 281.11065,267.16369 281.85148,277.94097 296.5622,297.44944 C 311.92556,317.87512 319.3162,322.26717 332.8804,312.00142 C 336.95496,308.96755 339.17744,305.47507 340.16521,300.889 L 344.22212,302.15899 L 351.20707,296.885 L 329.52904,268.11619 L 312.43708,280.99248 L 319.73953,290.62324 L 323.16145,288.04798 L 326.98906,293.18086 C 329.33501,296.28528 328.80585,298.59596 326.6892,300.20109 C 324.59019,301.80621 322.19132,301.68274 319.84536,298.59596 L 302.03022,274.94238 C 299.66662,271.83796 300.21342,269.50965 302.36535,267.90452 M 374.24329,198.3549 L 358.89757,209.92592 L 397.9145,261.69568 L 411.07302,251.74742 L 395.83313,231.58632 L 398.19672,229.8048 C 410.72024,220.36807 412.02551,213.43604 402.97683,201.45932 C 393.92814,189.41205 385.33807,190.01176 374.24329,198.3549 M 487.96036,303.49953 L 501.6304,293.21614 L 462.61347,241.46402 L 448.94343,251.72978 L 487.96036,303.49953 z M 431.14592,280.55151 C 433.26257,278.94638 435.66145,279.06985 437.98976,282.15664 L 440.26516,285.17286 L 453.9352,274.90711 C 450.7955,270.70908 448.59066,268.31021 446.33289,266.82856 C 439.06573,262.13665 430.42273,264.34149 423.13793,269.84478 C 409.94414,279.79304 410.66733,290.55269 425.39569,310.07879 C 440.75905,330.46919 448.14969,334.87888 461.73153,324.6484 C 465.77081,321.57926 467.99329,318.08679 468.9987,313.50071 L 473.03797,314.75306 L 479.97001,309.51435 L 458.36253,280.71026 L 441.25293,293.58655 L 448.57302,303.25259 L 451.94202,300.67733 L 455.80491,305.81021 C 458.1685,308.89699 457.6217,311.24295 455.48741,312.83044 C 453.37076,314.43556 451.00717,314.31209 448.67885,311.19003 L 430.84607,287.53646 C 428.50011,284.44968 429.04691,282.139 431.14592,280.55151 M 454.53492,153.19968 C 456.65157,151.61219 459.05044,151.73566 461.37876,154.84008 L 463.65415,157.87395 L 477.34183,147.55527 C 474.18449,143.39253 471.99729,140.97602 469.72189,139.512 C 462.47236,134.76717 453.81173,137.0073 446.52692,142.51059 C 433.33313,152.45885 434.03868,163.21849 448.78468,182.76224 C 464.14804,203.17028 471.53868,207.54469 485.10288,197.33185 C 489.1598,194.26271 491.38228,190.80551 492.38769,186.18415 L 496.40933,187.45414 L 503.39428,182.18016 L 481.71624,153.3937 L 464.6772,166.25236 L 471.90909,175.95367 L 475.33101,173.37842 L 479.22918,178.51129 C 481.57513,181.59808 480.97542,183.94403 478.8764,185.53152 C 476.75975,187.10137 474.37852,186.99554 472.06784,183.89112 L 454.21742,160.2199 C 451.8891,157.11548 452.4359,154.8048 454.53492,153.19968 M 416.84089,182.99154 L 432.76869,170.97955 L 424.72542,160.29046 L 395.14522,182.60349 L 434.14451,234.39088 L 464.55373,211.47813 L 456.2106,200.36572 L 439.40086,212.97743 L 431.83384,202.9057 L 445.02763,192.97508 L 436.63158,181.86266 L 423.47306,191.77564 L 416.84089,182.99154 z M 325.73671,140.6056 C 327.83572,139.00048 330.23459,139.12395 332.58054,142.21073 L 334.82067,145.2446 L 348.50834,134.9612 C 345.36864,130.78082 343.1638,128.36431 340.8884,126.91793 C 333.65651,122.19074 325.01352,124.39559 317.67579,129.91652 C 304.51728,139.84714 305.24047,150.62442 319.96883,170.1858 C 335.33219,190.55857 342.72283,194.96826 356.2694,184.73778 C 360.34395,181.65099 362.56643,178.17616 363.58948,173.59008 L 367.57584,174.84243 L 374.59607,169.58608 L 352.90039,140.79963 L 335.82608,153.65828 L 343.09324,163.32432 L 346.51516,160.74907 L 350.36041,165.86431 C 352.70637,168.98637 352.1772,171.33232 350.06055,172.91981 C 347.97918,174.5073 345.56267,174.36619 343.21672,171.29704 L 325.41921,147.60819 C 323.09089,144.52141 323.62006,142.17545 325.73671,140.6056 M 287.98976,170.37983 L 303.9352,158.35019 L 295.92721,147.67875 L 266.32937,170.00941 L 305.31102,221.76153 L 335.72024,198.86642 L 327.34183,187.77164 L 310.58501,200.38335 L 303.01799,190.27635 L 316.1765,180.36336 L 307.83337,169.25095 L 294.63958,179.18157 L 287.98976,170.37983 z M 138.20143,206.36289 L 140.58266,204.56374 C 153.10618,195.127 154.37617,188.19497 145.34513,176.23589 C 136.27881,164.17098 127.67109,164.75306 116.61159,173.13147 L 101.23059,184.7025 L 140.26517,236.47225 L 153.40604,226.55927 L 138.20143,206.36289 z M 153.10618,336.46637 L 183.53304,313.53599 L 175.15463,302.44121 L 158.41545,315.07056 L 150.7955,304.98119 L 163.97166,295.05057 L 155.59325,283.95579 L 142.41709,293.88641 L 135.8202,285.06703 L 151.76564,273.05504 L 143.68708,262.38359 L 114.10689,284.69662 L 153.10618,336.46637 z M 114.84772,333.67945 L 117.19367,331.89793 C 129.71719,322.44356 130.96954,315.51153 121.9385,303.51717 C 112.87217,291.50518 104.26446,292.08726 93.257876,300.43039 L 77.876879,312.00142 L 116.87617,363.78881 L 130.05232,353.85819 L 114.84772,333.67945 z M 542.07607,321.79093 L 528.91756,331.70391 L 522.25011,322.90217 L 538.21319,310.90781 L 530.16991,300.21872 L 500.55444,322.54939 L 539.57137,374.31915 L 569.96295,351.38876 L 561.60218,340.27634 L 544.84536,352.92333 L 537.27833,342.79869 L 550.41921,332.8857 L 542.07607,321.79093 z"
     style="fill:#FEBF4A" />
  <path
     d="M 575.99716,58.530686 L 570.42331,58.530686 L 570.42331,31.34936 L 570.24692,31.34936 L 560.68672,58.530686 L 556.15356,58.530686 L 547.05196,31.34936 L 546.89321,31.34936 L 546.89321,58.530686 L 541.30172,58.530686 L 541.30172,24.011637 L 550.17402,24.011637 L 558.76409,49.676029 L 558.94048,49.676029 L 567.31889,24.011637 L 575.99716,24.011637 L 575.99716,58.530686 z M 537.333,24.011637 L 537.333,28.474242 L 527.82571,28.474242 L 527.82571,58.530686 L 522.25186,58.530686 L 522.25186,28.474242 L 512.76221,28.474242 L 512.76221,24.011637 L 537.333,24.011637 z"
     style="fill:#000000" />
  <path
     style="fill:#000000"
     d="M 587.988,587.98801 L 11.994355,587.98801 L 11.994355,11.99435 L 587.988,11.99435 L 587.988,587.98801 z M 0,600 L 600,600 L 600,0 L 0,0 L 0,600 z" />
  <path
     d="M 211.21883,514.79774 L 117.60994,514.79774 L 117.60994,189.57432 L 56.42109,189.57432 L 56.42109,134.38265 C 98.418973,134.98236 126.02363,117.57291 141.01657,76.774463 L 211.21883,76.774463 L 211.21883,514.79774 z"
     style="fill:#FFFFFF" />
  <path
     d="M 530.41157,425.99189 L 530.41157,514.80304 L 301.19591,514.80304 L 301.19591,421.77623 C 405.59972,279.5902 439.20155,255.58385 439.20155,200.97425 C 439.20155,178.76706 430.8055,165.57327 414.61312,165.57327 C 392.40593,165.57327 387.60819,182.98272 387.60819,202.77341 L 387.60819,228.57891 L 299.99647,228.57891 L 299.99647,199.77482 C 299.99647,131.97143 332.99859,76.76212 414.61312,76.76212 C 492.61171,76.76212 535.20931,125.97426 535.20931,204.57256 C 535.20931,298.18145 456.01129,359.38794 402.01905,425.99189 L 530.41157,425.99189 z"
     style="fill:#FFFFFF" />
</svg>
